HIERARCHY
ROOT joint_0
{
	OFFSET 0.000000 0.000000 0.000000
	CHANNELS 6 Xposition Yposition Zposition Zrotation Yrotation Xrotation 
	JOINT joint_1
	{
		OFFSET 4.520508 -1.939880 86.268921
		CHANNELS 3 Zrotation Yrotation Xrotation
		JOINT joint_2
		{
			OFFSET -4.459717 -0.438538 78.934082
			CHANNELS 3 Zrotation Yrotation Xrotation
			JOINT joint_3
			{
				OFFSET -5.197754 -0.781128 78.796997
				CHANNELS 3 Zrotation Yrotation Xrotation
				JOINT joint_4
				{
					OFFSET 2.952026 -3.710571 109.812988
					CHANNELS 3 Zrotation Yrotation Xrotation
					JOINT joint_5
					{
						OFFSET 24.716797 -5.488037 87.903931
						CHANNELS 3 Zrotation Yrotation Xrotation
						End Site
						{
							OFFSET 0.000000 0.000000 0.000000
						}
					}
				}
				JOINT joint_6
				{
					OFFSET -3.154419 -25.484680 60.934937
					CHANNELS 3 Zrotation Yrotation Xrotation
					JOINT joint_7
					{
						OFFSET -28.997192 -144.472229 -32.671997
						CHANNELS 3 Zrotation Yrotation Xrotation
						JOINT joint_8
						{
							OFFSET 19.867676 -18.614380 -249.897949
							CHANNELS 3 Zrotation Yrotation Xrotation
							JOINT joint_9
							{
								OFFSET 5.281982 -13.816650 -264.993042
								CHANNELS 3 Zrotation Yrotation Xrotation
								End Site
								{
									OFFSET 0.000000 0.000000 0.000000
								}
							}
						}
					}
				}
				JOINT joint_10
				{
					OFFSET 6.494995 21.336792 62.257935
					CHANNELS 3 Zrotation Yrotation Xrotation
					JOINT joint_11
					{
						OFFSET 31.106567 145.200745 -27.007935
						CHANNELS 3 Zrotation Yrotation Xrotation
						JOINT joint_12
						{
							OFFSET 29.119141 24.684326 -248.460083
							CHANNELS 3 Zrotation Yrotation Xrotation
							JOINT joint_13
							{
								OFFSET 21.220093 31.248413 -262.703979
								CHANNELS 3 Zrotation Yrotation Xrotation
								End Site
								{
									OFFSET 0.000000 0.000000 0.000000
								}
							}
						}
					}
				}
			}
		}
	}
	JOINT joint_14
	{
		OFFSET -15.458496 -88.861694 -109.593018
		CHANNELS 3 Zrotation Yrotation Xrotation
		JOINT joint_15
		{
			OFFSET -6.193359 6.837952 -506.710999
			CHANNELS 3 Zrotation Yrotation Xrotation
			JOINT joint_16
			{
				OFFSET -35.096680 13.289795 -435.677025
				CHANNELS 3 Zrotation Yrotation Xrotation
				JOINT joint_17
				{
					OFFSET 158.491211 -33.916565 -71.771002
					CHANNELS 3 Zrotation Yrotation Xrotation
					End Site
					{
						OFFSET 0.000000 0.000000 0.000000
					}
				}
			}
		}
	}
	JOINT joint_18
	{
		OFFSET 23.116943 86.574158 -110.082031
		CHANNELS 3 Zrotation Yrotation Xrotation
		JOINT joint_19
		{
			OFFSET -6.125854 -0.283569 -506.757019
			CHANNELS 3 Zrotation Yrotation Xrotation
			JOINT joint_20
			{
				OFFSET -63.240234 11.589966 -432.537994
				CHANNELS 3 Zrotation Yrotation Xrotation
				JOINT joint_21
				{
					OFFSET 156.074219 -41.487305 -73.077999
					CHANNELS 3 Zrotation Yrotation Xrotation
					End Site
					{
						OFFSET 0.000000 0.000000 0.000000
					}
				}
			}
		}
	}
}
MOTION
Frames: 12
Frame Time: 0.016667
-1308.047974 889.620178 1142.567993 5.750460 3.139195 1.656466 -0.197736 -2.523350 -2.270249 -0.017765 0.368778 0.690207 -0.100673 -0.409487 -0.456756 0.092966 3.914702 0.521202 0.000000 0.000000 0.000000 3.558906 2.356053 -2.386804 0.810366 0.843470 8.295573 -0.258478 -1.491784 -8.180960 0.000000 0.000000 0.000000 -1.937714 1.336796 2.027158 -0.016671 2.237659 -0.501447 -0.847374 -6.341359 -0.520178 0.000000 0.000000 0.000000 0.438643 -4.156026 -3.366879 0.518583 2.513448 0.504913 0.473938 -0.357243 0.138103 0.000000 0.000000 0.000000 1.314562 -1.897431 -0.093138 1.334850 -2.458942 -1.905546 1.048871 2.306280 1.103985 0.000000 0.000000 0.000000 
-1303.872192 889.235901 1142.803955 5.041301 3.341298 1.548889 -0.096094 -2.223890 -2.213616 0.086337 0.343629 0.712323 -0.000352 -0.362488 -0.512937 0.085048 3.465518 0.470442 0.000000 0.000000 0.000000 4.306927 2.014327 -2.790527 0.930289 0.396499 9.148935 -0.447308 0.795523 -8.844110 0.000000 0.000000 0.000000 -1.970426 1.660569 2.464091 -0.098003 2.812002 -1.259236 -0.842883 -6.846234 0.280910 0.000000 0.000000 0.000000 0.620479 -5.396438 -3.485471 0.764627 4.926823 1.049255 0.707432 -1.046526 0.095376 0.000000 0.000000 0.000000 1.463252 -2.144999 -0.232969 1.479126 -1.776857 -1.302233 1.240642 1.926004 1.092385 0.000000 0.000000 0.000000 
-1299.836426 889.871460 1143.470947 4.294038 3.577457 1.515530 0.084721 -1.986306 -2.121859 0.276161 0.369100 0.666045 0.195973 -0.369096 -0.485251 0.050109 3.085827 0.520183 0.000000 0.000000 0.000000 4.762903 1.098885 -3.340540 1.007993 -0.602908 9.479091 -0.805338 4.492778 -9.651438 0.000000 0.000000 0.000000 -1.772674 1.849639 2.716174 -0.259328 3.249953 -2.452939 -0.767687 -6.990372 1.502330 0.000000 0.000000 0.000000 0.755613 -7.611996 -3.934134 1.050108 9.188242 2.008667 1.033050 -1.602941 0.119346 0.000000 0.000000 0.000000 1.580915 -2.895801 -0.673904 1.599586 -0.153511 -0.317478 1.443993 1.274144 1.013492 0.000000 0.000000 0.000000 
-1295.566040 891.054810 1144.317017 3.604595 3.757393 1.558434 0.270327 -1.653436 -2.086572 0.485699 0.369636 0.619872 0.417396 -0.392369 -0.410543 -0.000733 2.766343 0.634058 0.000000 0.000000 0.000000 5.077203 -0.120517 -3.876622 0.962317 -1.817456 9.379172 -1.313725 8.709213 -10.522117 0.000000 0.000000 0.000000 -1.460759 1.979461 2.845333 -0.463080 3.612852 -3.820032 -0.665994 -6.977230 2.907781 0.000000 0.000000 0.000000 0.798056 -10.418720 -4.639671 1.368928 14.681463 3.270010 1.500341 -1.635219 0.311457 0.000000 0.000000 0.000000 1.648885 -3.862709 -1.301331 1.701483 2.040699 0.846388 1.668313 0.590506 0.934209 0.000000 0.000000 0.000000 
-1290.407227 891.807434 1144.802979 3.084618 3.904014 1.515422 0.358812 -1.431640 -1.842170 0.589982 0.419993 0.464676 0.543208 -0.401803 -0.346428 -0.033253 2.674392 0.728494 0.000000 0.000000 0.000000 5.268933 -0.782784 -4.303195 0.920345 -2.494854 9.328740 -1.608838 10.541169 -11.473230 0.000000 0.000000 0.000000 -1.166565 2.149366 2.979373 -0.604324 3.943293 -4.770623 -0.623993 -7.105334 3.765283 0.000000 0.000000 0.000000 0.672448 -13.694415 -5.509773 1.713234 20.998380 5.092392 2.160716 -1.066307 0.704038 0.000000 0.000000 0.000000 1.666815 -4.741868 -1.633835 1.815143 4.193405 1.650611 1.888306 -0.025278 0.867880 0.000000 0.000000 0.000000 
-1284.478516 891.941284 1144.764038 2.731674 4.087880 1.453895 0.263002 -1.503375 -1.490208 0.548648 0.584733 0.264496 0.536942 -0.390266 -0.314052 -0.026190 2.936644 0.756571 0.000000 0.000000 0.000000 5.326089 -0.421102 -4.706497 1.037515 -2.292894 9.654788 -1.434089 8.282801 -12.645566 0.000000 0.000000 0.000000 -0.904475 2.379682 3.259557 -0.628179 4.260963 -5.111843 -0.683677 -7.514329 3.631275 0.000000 0.000000 0.000000 0.256805 -17.888995 -6.881854 2.214208 28.921392 8.012068 3.273602 0.895412 1.568226 0.000000 0.000000 0.000000 1.610233 -5.564580 -1.630886 1.973094 6.208199 1.870830 2.108009 -0.538482 0.822912 0.000000 0.000000 0.000000 
-1277.661621 891.644348 1144.365967 2.798657 4.016579 1.617505 -0.029269 -1.239182 -1.526310 0.337526 0.561735 0.261880 0.347644 -0.353356 -0.290319 0.003849 3.431039 0.751192 0.000000 0.000000 0.000000 5.233359 0.486863 -4.973755 1.139747 -1.546579 9.981637 -1.055286 3.558228 -13.815893 0.000000 0.000000 0.000000 -0.660134 2.643431 3.576443 -0.585159 4.553616 -5.080812 -0.797495 -8.070464 2.963131 0.000000 0.000000 0.000000 -0.623308 -22.254102 -8.654385 2.838976 37.328966 11.094268 4.693004 4.958862 3.003269 0.000000 0.000000 0.000000 1.367133 -6.043874 -1.714627 2.053100 8.111932 1.838091 2.269404 -0.837310 0.800764 0.000000 0.000000 0.000000 
-1268.945068 890.509399 1143.572998 3.314426 3.562876 1.842345 -0.322560 -0.429960 -1.787574 -0.013017 0.283451 0.370137 -0.027994 -0.259929 -0.267827 0.032954 3.942787 0.752316 0.000000 0.000000 0.000000 4.984820 1.428359 -5.004832 1.114806 -0.679335 10.100487 -0.726261 -1.258313 -14.440226 0.000000 0.000000 0.000000 -0.499113 2.946979 3.739823 -0.525871 4.817299 -4.810198 -0.905954 -8.632657 2.387998 0.000000 0.000000 0.000000 -1.787226 -25.570836 -9.975586 3.309227 43.780285 12.964907 5.714329 8.929500 4.279338 0.000000 0.000000 0.000000 1.025605 -5.827232 -1.821847 1.960085 9.585179 1.838673 2.302302 -1.073069 0.734663 0.000000 0.000000 0.000000 
-1257.689575 888.247437 1142.363037 3.945584 2.885848 1.879779 -0.439732 0.527452 -1.969332 -0.369860 -0.015092 0.457400 -0.450007 -0.068778 -0.262875 0.045185 4.434632 0.808415 0.000000 0.000000 0.000000 4.554708 2.361855 -4.833204 0.996033 0.239131 10.023642 -0.426498 -5.648297 -14.076841 0.000000 0.000000 0.000000 -0.459542 3.304630 3.640651 -0.458776 5.035964 -4.249581 -0.991930 -9.187762 2.127971 0.000000 0.000000 0.000000 -3.029837 -27.860681 -10.436335 3.457109 48.414496 13.592010 5.973127 10.761814 4.797609 0.000000 0.000000 0.000000 0.801322 -4.835970 -1.675032 1.755012 10.278891 1.877156 2.225003 -1.432294 0.588570 0.000000 0.000000 0.000000 
-1244.534424 885.147461 1140.758057 4.583271 2.156920 1.804048 -0.425121 1.391646 -2.082650 -0.715538 -0.248333 0.528239 -0.887642 0.173110 -0.276074 0.053700 4.932595 0.877899 0.000000 0.000000 0.000000 3.994746 3.340720 -4.460609 0.793167 1.268337 9.769302 -0.152719 -10.017039 -13.143464 0.000000 0.000000 0.000000 -0.501664 3.699257 3.412960 -0.377006 5.231120 -3.469585 -1.070758 -9.739149 1.961045 0.000000 0.000000 0.000000 -4.227753 -29.711980 -10.430575 3.439704 51.859535 13.575627 5.848744 11.114529 4.834211 0.000000 0.000000 0.000000 0.721949 -3.487279 -1.337000 1.496059 10.595806 1.902858 2.080373 -1.899210 0.386132 0.000000 0.000000 0.000000 
-1230.383789 881.665710 1138.790039 5.173630 1.587978 1.799255 -0.434774 1.964550 -2.203968 -1.017626 -0.380969 0.581757 -1.261352 0.348442 -0.285057 0.072647 5.325306 0.887690 0.000000 0.000000 0.000000 3.412675 4.086933 -4.056172 0.647336 2.037431 9.595419 0.020136 -13.235067 -12.703372 0.000000 0.000000 0.000000 -0.544444 4.085227 3.261917 -0.309285 5.460769 -2.819771 -1.128940 -10.152562 1.846504 0.000000 0.000000 0.000000 -5.048251 -31.344360 -10.308774 3.442743 53.131959 13.067217 5.904942 10.622404 4.723065 0.000000 0.000000 0.000000 0.678565 -2.499949 -1.098629 1.249268 11.399304 2.048373 1.971043 -2.452349 0.178221 0.000000 0.000000 0.000000 
-1215.369019 877.835999 1136.744019 5.708054 1.237945 1.968652 -0.625661 2.219602 -2.375662 -1.259274 -0.416570 0.597146 -1.499549 0.403250 -0.279661 0.111250 5.529440 0.787633 0.000000 0.000000 0.000000 2.820045 4.441262 -3.737767 0.711356 2.256118 9.870769 0.083565 -14.604037 -13.621441 0.000000 0.000000 0.000000 -0.538322 4.453091 3.257222 -0.259701 5.741565 -2.385431 -1.153586 -10.309417 1.758745 0.000000 0.000000 0.000000 -5.218285 -32.587992 -10.147218 3.556747 51.061081 11.881145 6.424511 9.798317 4.694539 0.000000 0.000000 0.000000 0.562349 -2.073760 -1.112943 1.029597 12.920026 2.376198 1.920529 -2.924691 0.020141 0.000000 0.000000 0.000000 
